<?xml version="1.0" encoding="UTF-8"?>
<!DOCTYPE svg PUBLIC "-//W3C//DTD SVG 1.1 Tiny//EN" "http://www.w3.org/Graphics/SVG/1.1/DTD/svg11-tiny.dtd">
<svg baseProfile="tiny" xmlns="http://www.w3.org/2000/svg" width="640px" height="640px" viewBox="0 0 640 640">
	<!-- Due to "style" attribute, this is not valid SVG Tiny.
		To make it valid, one would use attributes "fill", "stroke", etc instead.
		Symbian won't draw those, however, so we keep this version. -->
  <rect
     x="260.58698"
     y="234.47603"
     width="158.08191"
     height="184.03123"
     rx="3.1616383"
     ry="3.0671875"
     style="fill:#ff7f00;stroke:#000000;stroke-width:1.55702734"
     id="rect4" />
  <path
     id="svg_4"
     d="M 384.68127,221.44049 C 300.10746,259.78034 201.30624,203.80416 131.75019,114.85573 94.337471,78.560661 64.038464,130.44727 85.906441,163.16393 175.22273,240.35479 247.15001,293.0082 362.54981,279.71705 433.68667,264.38112 503.24272,219.9069 560.1522,176.96628 c 17.38902,-13.03555 5.92808,-59.04336 -36.35884,-39.87344 -46.37071,28.11586 -73.77153,54.69818 -139.11209,84.34765 z"
     style="fill:#ffffff;stroke:#ffffff;stroke-width:7.78513718;stroke-dasharray:none" />
  <path
     id="svg_5"
     d="M 358.59775,73.448703 C 355.96308,36.642454 422.8844,19.772924 436.05789,64.247141 460.82405,245.72237 438.16568,342.85001 420.2497,397.03697 403.91456,393.45855 387.57946,389.8802 371.24431,386.30181 385.99864,329.55885 427.62685,263.61432 358.59775,73.448703 z"
     style="fill:#ffffff;stroke:#ffffff;stroke-width:7.78513718;stroke-dasharray:none" />
  <path
     id="svg_6"
     d="m 124.63651,521.25805 c -36.885759,23.00391 -72.190748,-19.93672 -55.32867,-42.94062 83.2565,-63.38856 220.26083,-119.1091 325.64876,-95.08281 51.64008,29.13829 114.34594,53.67579 169.14765,125.75468 8.43106,32.20547 -27.40088,55.20937 -45.84376,32.20547 -26.87392,-35.78388 -72.71768,-91.50441 -165.98602,-102.75078 -49.53234,1.02238 -89.57975,-8.69035 -227.63796,82.81406 z"
     style="fill:#ffffff;stroke:#ffffff;stroke-width:7.78513718;stroke-dasharray:none" />
  <path
     id="svg_7"
     d="m 252.68288,271.28228 c 15.80818,3.57837 31.61638,7.15678 47.42458,10.73517 -46.89762,78.21327 -11.5927,190.16561 1.58081,289.8492 12.64656,37.82862 -63.23277,44.98542 -66.39441,12.26874 -5.26938,-104.28436 -27.92781,-208.56873 17.38902,-312.85311 z"
     style="fill:#ffffff;stroke:#ffffff;stroke-width:7.78513718;stroke-dasharray:none" />
</svg>
